<svg width="56" height="55" viewBox="0 0 56 55" fill="none" xmlns="http://www.w3.org/2000/svg">
<path d="M49.6206 48.12H6.37698C5.54337 48.12 4.77309 47.6832 4.35629 46.9741C3.9395 46.2651 3.9395 45.3915 4.35631 44.6825L25.977 8.01582C26.3941 7.30795 27.1637 6.87207 27.9965 6.87207C28.8292 6.87207 29.5988 7.30795 30.016 8.01582L51.6366 44.6825C52.0532 45.3912 52.0535 46.2642 51.6372 46.9731C51.221 47.682 50.4515 48.1191 49.6183 48.12H49.6206ZM25.6666 36.6617V41.245H27.8436H27.9953H28.147H30.3286V36.6617H25.6666ZM25.6666 20.62V32.0783H30.3333V20.62H25.6666Z" fill="#FF7F50"/>
</svg>
